<?xml version="1.0" standalone="no"?>
<!DOCTYPE svg PUBLIC "-//W3C//DTD SVG 20010904//EN"
 "http://www.w3.org/TR/2001/REC-SVG-20010904/DTD/svg10.dtd">
<svg version="1.0" xmlns="http://www.w3.org/2000/svg"
 width="512.000000pt" height="512.000000pt" viewBox="0 0 512.000000 512.000000"
 preserveAspectRatio="xMidYMid meet">

<g transform="translate(0.000000,512.000000) scale(0.100000,-0.100000)"
fill="#000000" stroke="none">
<path d="M1283 4612 c-700 -262 -1273 -479 -1273 -482 0 -3 574 -220 1275
-482 l1275 -478 477 179 478 179 -55 25 c-30 13 -245 102 -478 198 -398 163
-422 175 -395 186 15 6 160 67 321 136 l293 125 478 -214 479 -215 476 178
c262 98 476 180 476 183 0 4 -2503 944 -2545 956 -5 2 -583 -212 -1282 -474z"/>
<path d="M2 2369 l3 -1441 1195 -448 1195 -448 3 1436 c1 790 -1 1439 -5 1442
-5 4 -516 197 -1138 430 -621 233 -1158 434 -1193 446 l-62 24 2 -1441z m958
-988 l315 -118 3 -171 c1 -95 1 -172 0 -172 -2 0 -145 53 -318 119 l-315 118
-3 171 c-1 95 -1 172 0 172 2 0 145 -53 318 -119z"/>
<path d="M4640 3630 l-475 -178 -5 -403 -5 -402 -315 -118 c-173 -66 -316
-119 -317 -119 -2 0 -4 180 -5 399 l-3 399 -395 -148 -395 -148 -3 -1441 -2
-1441 62 24 c35 12 572 213 1193 446 622 233 1133 426 1138 430 4 3 6 652 5
1442 l-3 1436 -475 -178z"/>
</g>
</svg>
