<?xml version="1.0" standalone="no"?>
<!DOCTYPE svg PUBLIC "-//W3C//DTD SVG 20010904//EN"
 "http://www.w3.org/TR/2001/REC-SVG-20010904/DTD/svg10.dtd">
<svg version="1.0" xmlns="http://www.w3.org/2000/svg"
 width="500.000000pt" height="500.000000pt" viewBox="0 0 500.000000 500.000000"
 preserveAspectRatio="xMidYMid meet">

<g transform="translate(0.000000,500.000000) scale(0.100000,-0.100000)"
fill="#000000" stroke="none">
<path d="M2166 3559 c-3 -34 -5 -78 -4 -98 1 -31 2 -30 8 14 l7 50 2 -65 c7
-267 50 -378 153 -396 l33 -6 -31 20 c-47 30 -72 68 -93 141 -26 89 -38 155
-51 286 -6 60 -13 111 -14 113 -2 1 -6 -25 -10 -59z"/>
<path d="M1984 3510 c3 -25 10 -97 17 -160 15 -150 26 -184 61 -188 55 -6 85
54 93 188 l4 75 -8 -65 c-18 -131 -46 -195 -77 -169 -19 16 -39 91 -60 224
-17 111 -40 182 -30 95z"/>
<path d="M2956 3518 c-15 -13 -37 -50 -51 -83 -21 -53 -28 -61 -57 -66 l-33
-6 31 -2 31 -1 -12 -63 c-6 -34 -20 -76 -31 -92 -14 -23 -15 -27 -3 -17 14 11
17 8 23 -19 13 -64 45 -76 95 -34 l30 26 3 -28 c2 -22 9 -29 31 -31 34 -4 68
16 98 60 20 30 18 29 -22 -9 -25 -24 -54 -43 -67 -43 -19 0 -22 5 -22 37 0 21
11 55 26 80 44 76 21 67 -31 -11 -79 -119 -120 -126 -118 -21 1 47 7 61 36 97
40 49 107 168 107 189 0 8 -10 -6 -21 -31 -11 -25 -39 -74 -62 -109 -48 -74
-57 -65 -32 30 27 108 82 184 106 149 9 -13 10 -13 6 0 -6 24 -32 23 -61 -2z"/>
<path d="M2366 3485 c-7 -18 25 -37 44 -25 11 7 11 11 1 24 -17 20 -37 20 -45
1z m39 -5 c3 -5 -1 -10 -10 -10 -9 0 -13 5 -10 10 3 6 8 10 10 10 2 0 7 -4 10
-10z"/>
<path d="M2772 3470 c-24 -25 -46 -84 -62 -160 -6 -30 -20 -70 -31 -89 -11
-18 -18 -36 -15 -39 3 -2 11 7 17 22 16 34 29 33 29 -3 0 -16 7 -37 16 -45 20
-20 68 -21 84 -1 8 9 9 15 2 15 -6 0 -14 -4 -17 -10 -10 -17 -44 -11 -55 9
-16 31 -13 126 5 141 8 7 15 18 15 24 0 6 -5 4 -11 -4 -18 -26 1 71 22 113 19
37 33 46 42 27 3 -6 4 -5 3 2 -4 21 -23 20 -44 -2z"/>
<path d="M2798 3435 c-3 -11 -9 -29 -13 -40 -3 -11 1 -7 10 8 9 16 15 33 12
40 -2 6 -6 3 -9 -8z"/>
<path d="M1970 3376 c0 -83 -16 -200 -41 -300 -11 -43 -18 -80 -16 -82 6 -7
34 75 47 136 13 64 26 310 17 310 -4 0 -7 -29 -7 -64z"/>
<path d="M3082 3393 c2 -12 12 -18 28 -18 36 0 33 29 -3 33 -23 3 -28 0 -25
-15z m38 -3 c0 -5 -4 -10 -10 -10 -5 0 -10 5 -10 10 0 6 5 10 10 10 6 0 10 -4
10 -10z"/>
<path d="M2650 3396 c0 -2 7 -7 16 -10 8 -3 12 -2 9 4 -6 10 -25 14 -25 6z"/>
<path d="M2760 3361 c0 -5 12 -8 26 -8 18 0 22 2 13 8 -18 11 -39 11 -39 0z"/>
<path d="M2352 3321 c-15 -50 -15 -124 0 -139 14 -14 58 -16 58 -4 0 5 -10 8
-22 8 -20 -1 -23 5 -26 42 -2 24 1 64 6 88 12 54 -1 58 -16 5z"/>
<path d="M2476 3333 c-3 -3 -6 -13 -6 -22 0 -11 3 -12 8 -4 5 8 16 -4 32 -34
23 -44 24 -46 7 -76 -10 -16 -16 -31 -14 -33 2 -2 10 7 17 21 13 24 30 34 30
17 0 -32 79 -68 94 -43 3 4 -5 6 -17 4 -24 -5 -50 18 -61 53 -5 16 4 36 34 75
l41 54 -44 -49 -45 -49 -25 40 c-28 45 -41 56 -51 46z"/>
<path d="M2448 3249 c-9 -21 -13 -39 -8 -39 9 0 35 69 28 75 -1 2 -11 -14 -20
-36z"/>
<path d="M1446 3028 c-60 -104 -121 -286 -131 -393 -6 -72 6 -43 24 55 17 88
66 230 107 308 39 73 39 96 0 30z"/>
<path d="M3450 3068 c0 -2 20 -43 44 -90 48 -92 78 -183 106 -318 11 -50 18
-72 19 -53 2 79 -47 249 -110 375 -32 63 -59 103 -59 86z"/>
<path d="M2428 2773 c6 -2 18 -2 25 0 6 3 1 5 -13 5 -14 0 -19 -2 -12 -5z"/>
<path d="M2493 2773 c9 -2 23 -2 30 0 6 3 -1 5 -18 5 -16 0 -22 -2 -12 -5z"/>
<path d="M2581 2742 c54 -35 88 -85 105 -156 8 -32 13 -41 13 -25 1 31 -28
119 -39 119 -5 0 -11 8 -14 18 -6 18 -57 56 -91 68 -11 3 1 -7 26 -24z"/>
<path d="M2311 2707 c-12 -15 -47 -96 -37 -86 7 7 54 99 51 99 -1 0 -8 -6 -14
-13z"/>
<path d="M2186 2611 c-4 -5 3 -7 14 -4 23 6 26 13 6 13 -8 0 -17 -4 -20 -9z"/>
<path d="M2147 2582 c-10 -10 -17 -24 -17 -31 0 -6 -10 -16 -22 -21 -21 -8
-21 -9 -3 -9 13 -1 27 12 42 39 24 45 24 48 0 22z"/>
<path d="M2778 2583 c7 -3 16 -2 19 1 4 3 -2 6 -13 5 -11 0 -14 -3 -6 -6z"/>
<path d="M2885 2570 c22 -11 43 -27 48 -35 4 -8 15 -15 23 -15 10 0 6 8 -13
24 -34 28 -67 46 -84 46 -7 0 4 -9 26 -20z"/>
<path d="M2715 2560 c-3 -6 1 -7 9 -4 18 7 21 14 7 14 -6 0 -13 -4 -16 -10z"/>
<path d="M3053 2553 c15 -2 37 -2 50 0 12 2 0 4 -28 4 -27 0 -38 -2 -22 -4z"/>
<path d="M2990 2540 c-8 -5 -10 -10 -5 -10 6 0 17 5 25 10 8 5 11 10 5 10 -5
0 -17 -5 -25 -10z"/>
<path d="M3166 2516 c44 -44 46 -86 5 -127 -16 -16 -26 -29 -21 -29 17 0 60
62 60 86 0 33 -25 81 -49 94 -32 17 -31 12 5 -24z"/>
<path d="M1998 2533 c18 -2 45 -2 60 0 15 2 0 4 -33 4 -33 0 -45 -2 -27 -4z"/>
<path d="M1928 2523 c6 -2 18 -2 25 0 6 3 1 5 -13 5 -14 0 -19 -2 -12 -5z"/>
<path d="M1870 2510 c-18 -12 -2 -12 25 0 13 6 15 9 5 9 -8 0 -22 -4 -30 -9z"/>
<path d="M1293 2483 c-21 -8 -16 -61 6 -68 45 -14 76 29 41 57 -23 19 -27 20
-47 11z"/>
<path d="M1809 2473 c-13 -16 -12 -17 4 -4 9 7 17 15 17 17 0 8 -8 3 -21 -13z"/>
<path d="M3596 2468 c-15 -21 -14 -24 4 -43 16 -15 24 -17 38 -9 22 14 27 41
12 59 -18 21 -36 18 -54 -7z"/>
<path d="M1770 2445 c-11 -13 -10 -14 4 -9 9 3 16 10 16 15 0 13 -6 11 -20 -6z"/>
<path d="M1742 2392 c-18 -54 32 -93 115 -91 l48 2 -55 6 c-30 4 -66 13 -79
20 -20 11 -23 18 -18 52 6 46 3 50 -11 11z"/>
<path d="M3090 2350 c-21 -7 -21 -8 -5 -9 11 0 27 4 35 9 18 11 5 11 -30 0z"/>
<path d="M2985 2313 c-9 -38 -50 -90 -85 -108 -16 -8 -51 -16 -77 -17 -46 -1
-46 -2 -9 -5 22 -3 50 -2 63 2 35 9 100 72 113 110 8 25 18 35 38 38 25 4 25
4 -4 6 -27 1 -33 -3 -39 -26z"/>
<path d="M1310 2306 c0 -7 12 -60 26 -117 33 -130 85 -250 156 -359 70 -108
263 -307 288 -298 5 2 -25 31 -65 66 -71 60 -159 160 -217 247 -72 107 -168
365 -168 451 0 13 -4 24 -10 24 -5 0 -10 -6 -10 -14z"/>
<path d="M1914 2293 c2 -16 4 -38 5 -50 1 -23 44 -73 62 -73 6 0 -3 12 -20 26
-27 22 -31 32 -31 75 0 27 -4 49 -9 49 -6 0 -8 -12 -7 -27z"/>
<path d="M3606 2308 c-2 -7 -9 -42 -16 -78 -44 -238 -212 -513 -401 -657 -51
-39 -59 -58 -12 -28 70 45 212 200 271 295 46 73 113 223 136 302 25 89 41
178 31 178 -3 0 -7 -6 -9 -12z"/>
<path d="M2686 2204 c-15 -13 -24 -24 -20 -24 4 0 16 7 26 17 15 13 22 14 44
4 36 -16 39 -9 5 10 -26 15 -29 15 -55 -7z"/>
<path d="M2360 2200 c0 -5 5 -10 10 -10 6 0 10 5 10 10 0 6 -4 10 -10 10 -5 0
-10 -4 -10 -10z"/>
<path d="M2080 2179 c-13 -9 -13 -10 2 -6 9 3 31 -5 49 -19 18 -13 38 -24 43
-24 6 0 -3 9 -20 19 -18 11 -35 24 -38 30 -9 14 -17 14 -36 0z"/>
<path d="M2390 2185 c0 -9 79 -45 97 -44 12 0 10 3 -7 8 -14 5 -40 16 -58 25
-17 9 -32 14 -32 11z"/>
<path d="M2013 2163 c9 -2 25 -2 35 0 9 3 1 5 -18 5 -19 0 -27 -2 -17 -5z"/>
<path d="M2285 2149 c-22 -10 -34 -19 -27 -19 15 0 72 28 72 35 0 6 3 7 -45
-16z"/>
<path d="M2620 2160 c-8 -5 -10 -10 -5 -10 6 0 17 5 25 10 8 5 11 10 5 10 -5
0 -17 -5 -25 -10z"/>
<path d="M2578 2143 c7 -3 16 -2 19 1 4 3 -2 6 -13 5 -11 0 -14 -3 -6 -6z"/>
<path d="M2523 2133 c9 -2 23 -2 30 0 6 3 -1 5 -18 5 -16 0 -22 -2 -12 -5z"/>
<path d="M2203 2123 c9 -2 23 -2 30 0 6 3 -1 5 -18 5 -16 0 -22 -2 -12 -5z"/>
<path d="M2908 1443 c7 -3 16 -2 19 1 4 3 -2 6 -13 5 -11 0 -14 -3 -6 -6z"/>
<path d="M2760 1399 c0 -5 5 -7 10 -4 6 3 10 8 10 11 0 2 -4 4 -10 4 -5 0 -10
-5 -10 -11z"/>
<path d="M2691 1374 c0 -11 3 -14 6 -6 3 7 2 16 -1 19 -3 4 -6 -2 -5 -13z"/>
<path d="M2832 1370 c0 -14 2 -19 5 -12 2 6 2 18 0 25 -3 6 -5 1 -5 -13z"/>
<path d="M2191 1373 c-1 -6 -4 -20 -7 -30 -5 -17 -5 -17 6 0 6 10 9 23 6 30
-3 9 -5 9 -5 0z"/>
<path d="M2282 1360 c0 -14 2 -19 5 -12 2 6 2 18 0 25 -3 6 -5 1 -5 -13z"/>
<path d="M2700 1331 c0 -6 4 -13 10 -16 6 -3 7 1 4 9 -7 18 -14 21 -14 7z"/>
<path d="M2275 1319 c-4 -6 -4 -13 -1 -16 3 -4 6 -1 6 5 0 6 8 13 18 15 15 4
15 5 0 6 -9 0 -20 -4 -23 -10z"/>
<path d="M2587 1310 c3 -11 7 -20 9 -20 2 0 4 9 4 20 0 11 -4 20 -9 20 -5 0
-7 -9 -4 -20z"/>
<path d="M2372 1300 c0 -14 2 -19 5 -12 2 6 2 18 0 25 -3 6 -5 1 -5 -13z"/>
</g>
</svg>
