<?xml version="1.0" standalone="no"?>
<!DOCTYPE svg PUBLIC "-//W3C//DTD SVG 20010904//EN"
 "http://www.w3.org/TR/2001/REC-SVG-20010904/DTD/svg10.dtd">
<svg version="1.0" xmlns="http://www.w3.org/2000/svg"
 width="512.000000pt" height="512.000000pt" viewBox="0 0 512.000000 512.000000"
 preserveAspectRatio="xMidYMid meet">

<g transform="translate(0.000000,512.000000) scale(0.100000,-0.100000)"
fill="#000000" stroke="none">
<path d="M1374 5075 c-129 -28 -259 -121 -336 -239 -133 -206 -101 -482 78
-660 208 -209 539 -208 747 0 108 107 157 227 157 379 0 151 -46 261 -155 372
-134 136 -307 188 -491 148z"/>
<path d="M1125 3843 c-134 -19 -290 -114 -349 -213 l-18 -31 51 39 c79 59 138
77 256 77 91 -1 106 -4 166 -33 114 -55 196 -144 233 -254 11 -34 46 -256 46
-294 0 -2 41 14 92 35 105 42 106 43 107 161 1 92 -11 146 -50 228 -93 194
-319 315 -534 285z"/>
<path d="M995 3541 c-110 -29 -195 -135 -195 -246 0 -99 88 -830 104 -870 26
-61 59 -98 117 -130 43 -23 66 -29 119 -29 61 -1 86 7 363 118 l298 119 27
-26 c45 -43 71 -47 303 -47 l219 0 0 -1002 c0 -954 1 -1005 19 -1043 40 -87
81 -105 244 -105 l122 0 17 -47 c65 -182 304 -242 450 -113 40 34 77 93 92
143 5 16 29 17 329 17 l324 0 11 -38 c18 -59 73 -124 133 -157 48 -27 63 -30
139 -30 74 0 91 3 131 27 60 35 112 94 134 151 l18 47 110 0 c99 0 114 2 153
25 48 28 84 91 84 145 0 54 -36 117 -84 145 l-43 25 -1016 0 -1017 0 -2 1018
-3 1017 -22 35 c-12 20 -41 47 -65 60 -39 22 -57 25 -189 28 l-146 4 5 69 c6
85 -13 141 -67 196 -56 58 -104 78 -186 78 -66 0 -86 -7 -364 -118 -161 -65
-295 -116 -296 -115 -2 2 -15 106 -29 231 -27 231 -37 276 -80 332 -50 65
-179 108 -261 86z"/>
<path d="M3039 3276 c-56 -20 -96 -53 -126 -104 l-28 -47 0 -345 c0 -334 1
-346 22 -385 27 -51 68 -90 115 -109 56 -24 1010 -24 1066 0 47 19 88 58 115
109 21 39 22 51 22 380 0 337 0 340 -24 388 -25 52 -71 92 -128 113 -54 19
-981 19 -1034 0z"/>
<path d="M441 2769 c-118 -323 -186 -526 -191 -564 -15 -126 5 -209 165 -657
68 -190 125 -353 127 -361 2 -9 -109 -166 -245 -351 -136 -184 -258 -357 -270
-383 -16 -36 -22 -67 -22 -123 1 -91 29 -153 98 -217 64 -59 108 -76 197 -76
83 0 141 19 197 67 39 32 631 833 663 895 39 77 37 174 -6 286 -5 12 182 -93
214 -120 2 -1 -13 -180 -33 -396 -20 -217 -35 -424 -32 -460 12 -180 176 -304
356 -268 107 21 192 96 225 198 15 44 106 987 106 1090 0 26 -7 69 -16 95 -30
87 -92 138 -409 332 -159 97 -296 182 -303 189 -10 9 -7 27 18 94 25 68 27 82
14 77 -99 -38 -232 -33 -329 12 -108 51 -191 141 -230 252 -10 26 -37 225 -64
469 l-47 424 -183 -504z"/>
<path d="M3226 1943 c-39 -10 -96 -54 -123 -95 l-28 -42 -3 -375 c-2 -258 0
-388 8 -414 6 -22 29 -59 51 -82 73 -79 26 -76 980 -73 842 3 844 3 884 25 51
27 79 57 104 113 19 43 21 64 21 400 0 220 -4 370 -11 393 -13 49 -73 115
-124 138 -38 18 -88 19 -890 18 -467 -1 -859 -4 -869 -6z"/>
</g>
</svg>
