<?xml version="1.0" standalone="no"?>
<!DOCTYPE svg PUBLIC "-//W3C//DTD SVG 20010904//EN"
 "http://www.w3.org/TR/2001/REC-SVG-20010904/DTD/svg10.dtd">
<svg version="1.0" xmlns="http://www.w3.org/2000/svg"
 width="512.000000pt" height="512.000000pt" viewBox="0 0 512.000000 512.000000"
 preserveAspectRatio="xMidYMid meet">

<g transform="translate(0.000000,512.000000) scale(0.100000,-0.100000)"
fill="#000000" stroke="none">
<path d="M688 5099 c-23 -12 -46 -35 -58 -59 -20 -39 -20 -54 -20 -2480 0
-2427 0 -2441 20 -2480 13 -26 34 -47 60 -60 39 -20 55 -20 1870 -20 1815 0
1831 0 1870 20 26 13 47 34 60 60 20 39 20 55 20 1890 l0 1850 -590 0 c-572 0
-592 1 -630 20 -26 13 -47 34 -60 60 -19 38 -20 58 -20 630 l0 590 -1242 0
c-1218 -1 -1244 -1 -1280 -21z m972 -606 c23 -21 33 -40 38 -77 7 -47 9 -49
49 -61 97 -29 173 -96 173 -153 0 -55 -48 -102 -104 -102 -12 0 -40 13 -62 30
-21 16 -42 30 -47 30 -4 0 -6 -72 -5 -161 l3 -161 63 -25 c172 -69 265 -252
217 -428 -20 -75 -75 -167 -126 -209 -19 -16 -62 -42 -95 -58 l-62 -29 -4 -56
c-4 -48 -10 -61 -37 -85 -35 -31 -68 -35 -111 -13 -38 20 -50 43 -50 99 l0 45
-55 11 c-63 13 -183 70 -209 99 -10 11 -20 37 -23 58 -4 32 0 45 21 70 41 49
74 51 156 9 116 -61 110 -70 110 172 l0 207 -65 34 c-80 41 -134 92 -165 157
-19 39 -24 65 -24 130 0 72 4 90 32 147 38 77 112 149 175 170 39 13 42 16 45
53 4 67 12 84 45 104 44 28 81 25 117 -7z m1170 -93 c45 -23 80 -80 80 -130 0
-50 -35 -107 -80 -130 -36 -18 -58 -20 -270 -20 -212 0 -234 2 -270 20 -102
52 -104 196 -4 256 38 23 45 24 272 24 214 0 236 -2 272 -20z m0 -600 c45 -23
80 -80 80 -130 0 -50 -35 -107 -80 -130 -36 -18 -58 -20 -271 -20 -221 0 -233
1 -271 22 -101 57 -102 194 -2 254 38 23 45 24 272 24 214 0 236 -2 272 -20z
m1000 -600 c45 -23 80 -80 80 -130 0 -50 -35 -107 -80 -130 -38 -20 -57 -20
-771 -20 l-731 0 -40 22 c-45 25 -78 80 -78 128 0 48 35 107 78 129 36 19 60
20 770 21 715 0 734 0 772 -20z m0 -600 c45 -23 80 -80 80 -130 0 -50 -35
-107 -80 -130 -39 -20 -56 -20 -1271 -20 l-1231 0 -40 22 c-101 57 -102 194
-2 254 l39 24 1233 0 c1216 0 1233 0 1272 -20z m0 -600 c26 -13 47 -34 60 -60
19 -37 20 -58 20 -320 0 -262 -1 -283 -20 -320 -23 -45 -80 -80 -131 -80 -46
0 -108 39 -130 82 -14 28 -19 58 -19 120 l0 83 -377 -377 c-208 -207 -392
-383 -410 -392 -41 -20 -85 -20 -126 0 -18 9 -168 152 -334 317 l-303 302
-302 -302 c-167 -165 -317 -308 -335 -317 -69 -34 -158 -5 -193 64 -25 49 -25
90 -1 138 24 46 724 744 768 766 41 20 85 20 126 0 18 -9 168 -152 335 -317
l302 -302 318 318 317 317 -84 0 c-68 0 -91 4 -123 22 -101 57 -102 194 -2
254 39 24 42 24 322 24 264 0 285 -1 322 -20z"/>
<path d="M1483 4128 c-26 -30 -45 -91 -39 -123 6 -31 41 -74 51 -63 3 3 4 49
3 103 -2 79 -5 95 -15 83z"/>
<path d="M1700 3465 c0 -152 0 -155 20 -145 27 15 71 93 77 139 3 21 0 55 -7
75 -11 33 -60 86 -81 86 -5 0 -9 -67 -9 -155z"/>
<path d="M3510 4575 l0 -455 457 0 458 0 -455 455 c-250 250 -456 455 -457
455 -2 0 -3 -205 -3 -455z"/>
</g>
</svg>
